<?xml version="1.0" encoding="UTF-8"?>
<svg version="1.1" xmlns="http://www.w3.org/2000/svg" width="512" height="512">
<path d="M0 0 C1.25039063 -0.01160156 2.50078125 -0.02320313 3.7890625 -0.03515625 C27.39879382 0.0381659 50.27981962 8.83151998 68 24.375 C68.74507813 24.97699219 69.49015625 25.57898438 70.2578125 26.19921875 C88.47701245 41.33956435 101.13099842 65.96512866 104 89.375 C104.4421225 96.15830294 104.28676322 102.95764882 104.1875 109.75 C104.17241208 111.56509295 104.15873101 113.38019816 104.14648438 115.1953125 C104.11383589 119.58885131 104.06228565 123.98178553 104 128.375 C104.82725586 128.35405273 105.65451172 128.33310547 106.50683594 128.31152344 C110.2544337 128.22838381 114.00183749 128.17634469 117.75 128.125 C119.05195313 128.09148437 120.35390625 128.05796875 121.6953125 128.0234375 C122.94570313 128.01054687 124.19609375 127.99765625 125.484375 127.984375 C126.63647461 127.96342773 127.78857422 127.94248047 128.97558594 127.92089844 C132.75331177 128.48810622 133.67968337 129.38570955 136 132.375 C136.49219131 135.30350113 136.49219131 135.30350113 136.48101807 138.77838135 C136.48926605 140.75554138 136.48926605 140.75554138 136.49768066 142.77264404 C136.48352482 144.23157103 136.46898559 145.69049433 136.45410156 147.14941406 C136.45297317 148.68693004 136.45360678 150.22444817 136.45587158 151.76196289 C136.45702 155.9353353 136.43349024 160.10824854 136.40557575 164.28151417 C136.38058332 168.64303578 136.37822181 173.00456773 136.37347412 177.3661499 C136.36103798 185.62512187 136.32820778 193.88388223 136.28807616 202.14276099 C136.24337828 211.54530518 136.22137641 220.94785944 136.20129442 230.35048342 C136.15947568 249.69210895 136.08911126 269.03353746 136 288.375 C136.74280212 288.36611755 137.48560425 288.35723511 138.25091553 288.3480835 C145.25449905 288.26790256 152.25792335 288.20701814 159.26183701 288.16775131 C162.86258286 288.14688487 166.46294916 288.11858579 170.06347656 288.07324219 C173.53887913 288.02974875 177.01391688 288.00585579 180.48957062 287.99549103 C182.45945784 287.98451385 184.42919847 287.953293 186.39886475 287.92181396 C188.20027924 287.92136078 188.20027924 287.92136078 190.03808594 287.92089844 C191.09509705 287.91201599 192.15210815 287.90313354 193.2411499 287.89398193 C196.74232263 288.50442733 197.90596867 289.53929265 200 292.375 C200.50336456 294.48022461 200.50336456 294.48022461 200.50793457 296.77734375 C200.52485352 298.08952881 200.52485352 298.08952881 200.54211426 299.42822266 C200.52996887 300.85593994 200.52996887 300.85593994 200.51757812 302.3125 C200.52809204 303.82529541 200.52809204 303.82529541 200.53881836 305.36865234 C200.55643218 308.70438114 200.5447631 312.03926248 200.53125 315.375 C200.53394393 317.69140791 200.53782551 320.00781472 200.54284668 322.32421875 C200.54874634 327.17979698 200.54016338 332.03508096 200.52148438 336.890625 C200.49869496 343.11864646 200.51181548 349.34597845 200.53577423 355.57397461 C200.55021932 360.35747485 200.54563205 365.14081127 200.53526306 369.92431641 C200.53259223 372.22086671 200.535878 374.51743183 200.54518127 376.81396484 C200.55532527 380.0222114 200.53987483 383.22933706 200.51757812 386.4375 C200.52567505 387.38931152 200.53377197 388.34112305 200.54211426 389.32177734 C200.52519531 390.6339624 200.52519531 390.6339624 200.50793457 391.97265625 C200.50567242 393.10973022 200.50567242 393.10973022 200.50336456 394.26977539 C199.76355897 397.36386874 198.55162271 398.50372657 196 400.375 C192.89526367 400.87836456 192.89526367 400.87836456 189.16796875 400.88293457 C188.1380204 400.89229451 188.1380204 400.89229451 187.08726501 400.90184355 C184.78699379 400.91779568 182.48777903 400.90516168 180.1875 400.89257812 C178.53824241 400.8979983 176.88898966 400.90512037 175.23974609 400.91381836 C170.76039784 400.93206725 166.28141775 400.9249778 161.80206299 400.91230202 C157.11672974 400.90218243 152.43142823 400.9115648 147.74609375 400.91784668 C139.87754653 400.92512613 132.00914943 400.9155276 124.140625 400.89648438 C115.04054229 400.87471504 105.94081804 400.8817662 96.84074402 400.90379 C89.03086781 400.92193554 81.22109958 400.92450647 73.41120911 400.91403532 C68.74527103 400.90779573 64.0795015 400.90697752 59.41357422 400.92018127 C55.02711183 400.93172689 50.64111206 400.92373787 46.25469971 400.90060425 C44.64382699 400.89531022 43.03291542 400.8968428 41.42205811 400.90565491 C39.22485499 400.9165674 37.02913926 400.9029014 34.83203125 400.88293457 C32.98702026 400.88067242 32.98702026 400.88067242 31.10473633 400.87836456 C27.41845321 400.28071501 26.24440248 399.29997898 24 396.375 C23.46875 394.375 23.46875 394.375 23.5 392.375 C23.4896875 391.715 23.479375 391.055 23.46875 390.375 C24.2524801 387.42448668 25.63568545 386.27789566 28 384.375 C30.92850113 383.88280869 30.92850113 383.88280869 34.40338135 383.89398193 C35.72148804 383.88848328 37.03959473 383.88298462 38.39764404 383.87731934 C39.85657103 383.89147518 41.31549433 383.90601441 42.77441406 383.92089844 C44.31193004 383.92202683 45.84944817 383.92139322 47.38696289 383.91912842 C51.5603353 383.91798 55.73324854 383.94150976 59.90651417 383.96942425 C64.26803578 383.99441668 68.62956773 383.99677819 72.9911499 384.00152588 C81.25012187 384.01396202 89.50888223 384.04679222 97.76776099 384.08692384 C108.92816544 384.13997825 120.08862769 384.16158186 131.24912643 384.18493271 C148.83290948 384.22255322 166.41624597 384.30223964 184 384.375 C184 357.975 184 331.575 184 304.375 C62.56 304.375 -58.88 304.375 -184 304.375 C-184 330.775 -184 357.175 -184 384.375 C-167.17773438 384.30539062 -167.17773438 384.30539062 -150.015625 384.234375 C-142.9244755 384.21394468 -135.83334725 384.19452416 -128.7421875 384.1796875 C-117.47876724 384.15593242 -106.21546647 384.12797301 -94.95214844 384.07324219 C-86.74992973 384.03340485 -78.54780775 384.00757443 -70.34549499 383.99864602 C-66.0013696 383.99342599 -61.65752098 383.98113653 -57.31348419 383.95207977 C-53.22590485 383.92495957 -49.13871667 383.91654804 -45.05105591 383.92256927 C-43.54981105 383.9214675 -42.04855331 383.91349314 -40.54738617 383.8981781 C-38.49948048 383.87830745 -36.45136561 383.8854385 -34.40338135 383.89398193 C-33.25667088 383.89029476 -32.1099604 383.88660759 -30.92850113 383.88280869 C-27.36229268 384.48217906 -26.19467399 385.55949144 -24 388.375 C-23.46875 390.375 -23.46875 390.375 -23.5 392.375 C-23.4896875 393.035 -23.479375 393.695 -23.46875 394.375 C-24.25658451 397.3409652 -25.61064407 398.47179301 -28 400.375 C-31.10473633 400.87836456 -31.10473633 400.87836456 -34.83203125 400.88293457 C-35.8619796 400.89229451 -35.8619796 400.89229451 -36.91273499 400.90184355 C-39.21300621 400.91779568 -41.51222097 400.90516168 -43.8125 400.89257812 C-45.46175759 400.8979983 -47.11101034 400.90512037 -48.76025391 400.91381836 C-53.23960216 400.93206725 -57.71858225 400.9249778 -62.19793701 400.91230202 C-66.88327026 400.90218243 -71.56857177 400.9115648 -76.25390625 400.91784668 C-84.12245347 400.92512613 -91.99085057 400.9155276 -99.859375 400.89648438 C-108.95945771 400.87471504 -118.05918196 400.8817662 -127.15925598 400.90379 C-134.96913219 400.92193554 -142.77890042 400.92450647 -150.58879089 400.91403532 C-155.25472897 400.90779573 -159.9204985 400.90697752 -164.58642578 400.92018127 C-168.97288817 400.93172689 -173.35888794 400.92373787 -177.74530029 400.90060425 C-179.35617301 400.89531022 -180.96708458 400.8968428 -182.57794189 400.90565491 C-184.77514501 400.9165674 -186.97086074 400.9029014 -189.16796875 400.88293457 C-191.01297974 400.88067242 -191.01297974 400.88067242 -192.89526367 400.87836456 C-196 400.375 -196 400.375 -198.39525604 398.61840057 C-200.18243214 396.11996344 -200.50190426 395.00379608 -200.50793457 391.97265625 C-200.51921387 391.09786621 -200.53049316 390.22307617 -200.54211426 389.32177734 C-200.53401733 388.36996582 -200.52592041 387.4181543 -200.51757812 386.4375 C-200.5245874 385.42896973 -200.53159668 384.42043945 -200.53881836 383.38134766 C-200.55643218 380.04561886 -200.5447631 376.71073752 -200.53125 373.375 C-200.53394393 371.05859209 -200.53782551 368.74218528 -200.54284668 366.42578125 C-200.54874634 361.57020302 -200.54016338 356.71491904 -200.52148438 351.859375 C-200.49869496 345.63135354 -200.51181548 339.40402155 -200.53577423 333.17602539 C-200.55021932 328.39252515 -200.54563205 323.60918873 -200.53526306 318.82568359 C-200.53259223 316.52913329 -200.535878 314.23256817 -200.54518127 311.93603516 C-200.55532527 308.7277886 -200.53987483 305.52066294 -200.51757812 302.3125 C-200.52972351 300.88478271 -200.52972351 300.88478271 -200.54211426 299.42822266 C-200.52519531 298.1160376 -200.52519531 298.1160376 -200.50793457 296.77734375 C-200.50642647 296.01929443 -200.50491837 295.26124512 -200.50336456 294.48022461 C-199.77110057 291.41767255 -198.50063864 290.24789336 -196 288.375 C-193.2411499 287.89398193 -193.2411499 287.89398193 -190.03808594 287.92089844 C-188.83714294 287.92120056 -187.63619995 287.92150269 -186.39886475 287.92181396 C-185.10708313 287.94245911 -183.81530151 287.96310425 -182.484375 287.984375 C-181.14488571 287.99183929 -179.80538548 287.99753134 -178.46588135 288.00152588 C-174.94748564 288.01676787 -171.42975485 288.05603582 -167.91162109 288.1003418 C-164.31877639 288.14132636 -160.7258238 288.1595436 -157.1328125 288.1796875 C-150.08827034 288.22253255 -143.04417868 288.29076554 -136 288.375 C-136.00368717 287.57470493 -136.00737434 286.77440987 -136.01117325 285.94986343 C-136.09946539 266.4874901 -136.1656809 247.02515667 -136.20724869 227.56262589 C-136.22788427 218.15072696 -136.25602384 208.73896162 -136.30175781 199.32714844 C-136.34159515 191.12492973 -136.36742557 182.92280775 -136.37635398 174.72049499 C-136.38157401 170.3763696 -136.39386347 166.03252098 -136.42292023 161.68848419 C-136.45004043 157.60090485 -136.45845196 153.51371667 -136.45243073 149.42605591 C-136.4535325 147.92481105 -136.46150686 146.42355331 -136.4768219 144.92238617 C-136.49669255 142.87448048 -136.4895615 140.82636561 -136.48101807 138.77838135 C-136.48470524 137.63167088 -136.48839241 136.4849604 -136.49219131 135.30350113 C-135.88984432 131.71958204 -134.8712517 130.54033935 -132 128.375 C-128.97558594 127.92089844 -128.97558594 127.92089844 -125.484375 127.984375 C-124.23398438 127.99726563 -122.98359375 128.01015625 -121.6953125 128.0234375 C-120.39335937 128.05695313 -119.09140625 128.09046875 -117.75 128.125 C-116.43257813 128.14304687 -115.11515625 128.16109375 -113.7578125 128.1796875 C-110.50447692 128.22683729 -107.25260375 128.29263956 -104 128.375 C-104.02618408 127.30354736 -104.05236816 126.23209473 -104.0793457 125.12817383 C-104.82255089 91.75833147 -102.50057432 64.29798135 -81 37.375 C-80.28070313 36.47136719 -79.56140625 35.56773438 -78.8203125 34.63671875 C-59.3790337 11.7415864 -29.61496852 -0.27477806 0 0 Z M-60 40.375 C-60.6290625 40.92414063 -61.258125 41.47328125 -61.90625 42.0390625 C-77.75702477 56.66500467 -86.75680007 79.19713158 -87.91796875 100.44921875 C-88.11246496 109.75725168 -88.06828312 119.06573516 -88 128.375 C-82.72 128.375 -77.44 128.375 -72 128.375 C-71.96132812 124.73791016 -71.96132812 124.73791016 -71.921875 121.02734375 C-71.88323296 118.62415987 -71.83814543 116.2211748 -71.79248047 113.81811523 C-71.76461716 112.17466054 -71.74323446 110.53108045 -71.72900391 108.88745117 C-71.53274419 87.47551608 -66.35300651 68.52738851 -50.84765625 53.02734375 C-42.81168239 45.54253408 -34.22414572 40.36764085 -24 36.375 C-23.12601562 36.03339844 -22.25203125 35.69179687 -21.3515625 35.33984375 C-3.27145255 29.64010234 18.05881554 32.49262112 34.6875 40.9375 C51.23392353 49.96067916 62.86306217 64.99362898 68.80932617 82.79833984 C71.52347932 92.16505214 71.55432033 101.45558142 71.6875 111.125 C71.7207504 112.80471281 71.75524688 114.48440143 71.79101562 116.1640625 C71.87731938 120.23438863 71.93812331 124.30394036 72 128.375 C77.28 128.375 82.56 128.375 88 128.375 C88.48357222 96.620424 86.25366498 68.86623641 64 44.375 C63.44957031 43.74335937 62.89914062 43.11171875 62.33203125 42.4609375 C47.35157347 26.25984982 24.3460433 17.35281601 2.62890625 16.33984375 C-21.00104975 16.5687669 -42.55051372 24.29995956 -60 40.375 Z M-42.25 67.96484375 C-57.10921819 86.563306 -56 104.77967636 -56 128.375 C-19.04 128.375 17.92 128.375 56 128.375 C56.30800275 92.78192829 56.30800275 92.78192829 39.19921875 64.37890625 C28.89748472 54.4742412 14.25064482 49.5448153 0.1875 48.9375 C-16.05769552 49.43173214 -31.52125895 55.61561577 -42.25 67.96484375 Z M-120 144.375 C-120 191.895 -120 239.415 -120 288.375 C-40.8 288.375 38.4 288.375 120 288.375 C120 240.855 120 193.335 120 144.375 C40.8 144.375 -38.4 144.375 -120 144.375 Z " fill="#258CF2" transform="translate(256,55.625)"/>
<path d="M0 0 C8.96487114 8.64778567 12.83197328 18.20311961 13.5859375 30.50390625 C13.71232245 41.20871174 10.00144817 50.49920161 2.5625 58.1875 C-0.67523075 61.60040648 -2.12365897 64.361503 -3.4375 68.875 C-5.58632461 76.24105817 -9.40741254 81.30687724 -16 85.3125 C-22.36659564 88.06395509 -29.66721879 87.96196304 -36.22265625 85.9296875 C-41.72634929 83.42272627 -46.46502843 80.22231291 -49.375 74.8125 C-50.26029299 71.71803551 -50.93937551 68.61618946 -51.609375 65.46875 C-52.64098769 61.88968556 -54.33082553 60.8655479 -57.375 58.8125 C-66.03239283 48.32545198 -68.57366792 37.06939956 -67.59814453 23.78515625 C-66.38396362 13.05147815 -60.17203404 4.74839317 -52.0625 -2 C-36.17320083 -13.66658934 -15.00853488 -12.67536952 0 0 Z M-45.375 14.8125 C-50.1919207 20.64158379 -51.13216639 26.28700576 -50.77734375 33.73828125 C-49.81070472 41.12415421 -46.96881188 44.43455975 -41.25 49.0625 C-37.09993843 52.55122135 -35.70714707 54.73627745 -35 60.125 C-34.92652344 61.60419922 -34.92652344 61.60419922 -34.8515625 63.11328125 C-34.24702696 66.53733092 -33.08389926 67.69955858 -30.375 69.8125 C-27.375 70.47916667 -27.375 70.47916667 -24.375 69.8125 C-22.07224444 67.9454009 -20.69676129 66.45602259 -19.375 63.8125 C-19.27341313 62.37617455 -19.19268573 60.93832171 -19.125 59.5 C-18.61768617 54.67283208 -17.12316116 52.99028881 -13.375 49.8125 C-12.12265936 48.50090883 -10.89464017 47.16580746 -9.6875 45.8125 C-9.10613281 45.173125 -8.52476562 44.53375 -7.92578125 43.875 C-3.41387153 37.87427373 -3.42835906 31.02540129 -4.375 23.8125 C-6.86708316 17.24085011 -10.97466453 11.88519774 -17.375 8.8125 C-27.40114347 5.25726338 -37.73112737 7.2634645 -45.375 14.8125 Z " fill="#258BF2" transform="translate(283.375,241.1875)"/>
<path d="M0 0 C5.05494619 2.28821144 8.64807447 6.93836283 12.26953125 11.02734375 C15.69465191 9.58000294 17.58177122 7.7400623 20.01953125 4.96484375 C22.71117538 2.21305115 24.61749875 0.45234663 28.45703125 -0.22265625 C32.26953125 0.02734375 32.26953125 0.02734375 35.20703125 1.52734375 C37.92189996 4.8180937 38.34289797 6.7720739 38.26953125 11.02734375 C35.66799289 16.23042046 31.44770492 20.06042606 27.26953125 24.02734375 C28.71948412 27.45105446 30.57319722 29.38142722 33.33203125 31.83984375 C36.16695403 34.61291367 37.2110688 35.84580246 38.45703125 39.71484375 C38.24801686 43.40743127 37.55482024 45.14957243 35.26953125 48.02734375 C31.77216288 49.77602794 28.95310191 50.18251151 25.26953125 49.02734375 C21.21774722 45.68369017 17.74224788 41.95968464 14.26953125 38.02734375 C13.83382813 38.40246094 13.398125 38.77757812 12.94921875 39.1640625 C11.70291967 40.23501647 10.45125772 41.29974988 9.1953125 42.359375 C8.01401895 43.38252378 6.85789821 44.43686042 5.75 45.5390625 C2.99703675 48.18585086 0.89877991 49.38859937 -2.85546875 49.58984375 C-6.73046875 49.02734375 -6.73046875 49.02734375 -9.16796875 47.40234375 C-11.10278007 44.46143055 -11.65856068 42.55083919 -11.73046875 39.02734375 C-9.63737984 33.72485184 -4.77926854 29.90303571 -0.73046875 26.02734375 C-2.11487991 22.87088631 -3.71760571 20.86984319 -6.23046875 18.52734375 C-8.73201363 16.19539513 -10.48188995 14.2397676 -11.73046875 11.02734375 C-11.65645639 6.8826514 -11.32638007 4.7496605 -8.66796875 1.52734375 C-5.58921785 -0.04478437 -3.44175964 -0.58569141 0 0 Z " fill="#2684F1" transform="translate(282.73046875,374.97265625)"/>
<path d="M0 0 C5.18112438 2.01109433 8.7629833 6.84355286 12.375 10.921875 C15.79871071 9.47192213 17.72908347 7.61820903 20.1875 4.859375 C22.96056992 2.02445222 24.19345871 0.98033745 28.0625 -0.265625 C31.75508752 -0.05661061 33.49722868 0.63658601 36.375 2.921875 C38.12368419 6.41924337 38.53016776 9.23830434 37.375 12.921875 C34.03134642 16.97365903 30.30734089 20.44915837 26.375 23.921875 C26.75011719 24.35757812 27.12523437 24.79328125 27.51171875 25.2421875 C28.58267272 26.48848658 29.64740613 27.74014853 30.70703125 28.99609375 C31.73018003 30.1773873 32.78451667 31.33350804 33.88671875 32.44140625 C36.53350711 35.1943695 37.73625562 37.29262634 37.9375 41.046875 C37.375 44.921875 37.375 44.921875 35.875 47.421875 C33.07040435 49.10463239 30.81728228 49.66286056 27.53515625 49.515625 C23.24525931 48.33648515 20.39119273 45.04507235 17.375 41.921875 C16.80394531 41.35082031 16.23289062 40.77976562 15.64453125 40.19140625 C15.22558594 39.77246094 14.80664062 39.35351562 14.375 38.921875 C11.18940048 40.31820607 9.13556155 41.96744993 6.75 44.484375 C3.51915401 47.87746871 2.37227692 48.85753455 -2.5 49.171875 C-5.09820741 49.11528972 -6.62690773 48.92109234 -9.0625 47.921875 C-10.97712173 45.47115919 -11.72963049 43.21259556 -11.9921875 40.11328125 C-11.25008376 35.68434296 -7.76322229 32.90186759 -4.625 29.921875 C-3.4184375 28.684375 -3.4184375 28.684375 -2.1875 27.421875 C-1.671875 26.926875 -1.15625 26.431875 -0.625 25.921875 C-2.07234081 22.49675434 -3.91228145 20.60963503 -6.6875 18.171875 C-9.4392926 15.48023087 -11.19999712 13.5739075 -11.875 9.734375 C-11.58835977 5.36311147 -10.7732323 3.89020831 -7.625 0.921875 C-5.0253719 -0.37793905 -2.85322961 -0.3566537 0 0 Z " fill="#2497F4" transform="translate(362.625,375.078125)"/>
<path d="M0 0 C4.00794874 2.96041668 7.49967867 6.46716794 11 10 C14.15645744 8.61558884 16.15750056 7.01286304 18.5 4.5 C20.83100803 1.99946411 22.78501506 0.24087138 26 -1 C29.64426778 -0.87213096 32.05717808 -0.76034026 34.9375 1.5625 C36.58558847 5.34340885 37.37645284 8.09576228 36 12 C32.64482456 16.04218756 28.93251998 19.52712521 25 23 C26.50603135 26.67405451 28.67364889 28.64531552 31.625 31.25 C36.64955491 36.16127992 36.64955491 36.16127992 36.8125 40.3125 C35.92380768 44.34579591 35.42712134 45.74531491 32 48 C28.69296839 49.05543562 26.87278698 49.34452118 23.625 48.0625 C19.76163121 45.02699595 16.39363422 41.54521093 13 38 C9.84354256 39.38441116 7.84249944 40.98713696 5.5 43.5 C3.16992204 45.99953817 1.21657412 47.76478538 -2 49 C-5.3568842 48.82332188 -7.96417908 48.62149255 -10.875 46.875 C-12.68136899 43.86438501 -12.94075294 41.49557632 -13 38 C-10.39846164 32.79692329 -6.17817367 28.96691769 -2 25 C-3.38441116 21.84354256 -4.98713696 19.84249944 -7.5 17.5 C-9.99953817 15.16992204 -11.76478538 13.21657412 -13 10 C-12.68041237 3.92783505 -12.68041237 3.92783505 -10.625 1.125 C-6.91303031 -1.44482517 -4.17576204 -1.26060741 0 0 Z " fill="#2970EE" transform="translate(204,376)"/>
<path d="M0 0 C4.00794874 2.96041668 7.49967867 6.46716794 11 10 C14.15645744 8.61558884 16.15750056 7.01286304 18.5 4.5 C20.83100803 1.99946411 22.78501506 0.24087138 26 -1 C29.64426778 -0.87213096 32.05717808 -0.76034026 34.9375 1.5625 C36.58558847 5.34340885 37.37645284 8.09576228 36 12 C32.64482456 16.04218756 28.93251998 19.52712521 25 23 C26.50603135 26.67405451 28.67364889 28.64531552 31.625 31.25 C36.64955491 36.16127992 36.64955491 36.16127992 36.8125 40.3125 C35.92380768 44.34579591 35.42712134 45.74531491 32 48 C28.69296839 49.05543562 26.87278698 49.34452118 23.625 48.0625 C19.76163121 45.02699595 16.39363422 41.54521093 13 38 C9.84354256 39.38441116 7.84249944 40.98713696 5.5 43.5 C3.16992204 45.99953817 1.21657412 47.76478538 -2 49 C-5.3568842 48.82332188 -7.96417908 48.62149255 -10.875 46.875 C-12.68136899 43.86438501 -12.94075294 41.49557632 -13 38 C-10.39846164 32.79692329 -6.17817367 28.96691769 -2 25 C-3.38441116 21.84354256 -4.98713696 19.84249944 -7.5 17.5 C-9.99953817 15.16992204 -11.76478538 13.21657412 -13 10 C-12.68041237 3.92783505 -12.68041237 3.92783505 -10.625 1.125 C-6.91303031 -1.44482517 -4.17576204 -1.26060741 0 0 Z " fill="#2C5DEA" transform="translate(124,376)"/>
<path d="M0 0 C2.796875 0.484375 2.796875 0.484375 5.546875 2.609375 C7.01085912 5.97653849 7.40184856 7.85453366 6.796875 11.484375 C5.546875 14.359375 5.546875 14.359375 2.796875 16.484375 C-1.31750091 17.19692055 -5.08874909 17.19692055 -9.203125 16.484375 C-12.48955678 13.94485954 -13.0294565 12.52638599 -13.703125 8.484375 C-12.31936846 0.18183575 -7.52375592 -0.33031124 0 0 Z " fill="#2973EE" transform="translate(259.203125,439.515625)"/>
</svg>
